<?xml version="1.0" encoding="UTF-8" standalone="no"?>
<svg
   id="svg"
   version="1.1"
   width="400"
   height="400"
   viewBox="0, 0, 400,400"
   sodipodi:docname="Spotify.svg"
   inkscape:version="1.3 (0e150ed6c4, 2023-07-21)"
   xmlns:inkscape="http://www.inkscape.org/namespaces/inkscape"
   xmlns:sodipodi="http://sodipodi.sourceforge.net/DTD/sodipodi-0.dtd"
   xmlns="http://www.w3.org/2000/svg"
   xmlns:svg="http://www.w3.org/2000/svg">
  <defs
     id="defs1" />
  <sodipodi:namedview
     id="namedview1"
     pagecolor="#ffffff"
     bordercolor="#000000"
     borderopacity="0.25"
     inkscape:showpageshadow="2"
     inkscape:pageopacity="0.0"
     inkscape:pagecheckerboard="0"
     inkscape:deskcolor="#d1d1d1"
     inkscape:zoom="2.9275"
     inkscape:cx="242.52775"
     inkscape:cy="163.45004"
     inkscape:window-width="5120"
     inkscape:window-height="1406"
     inkscape:window-x="-11"
     inkscape:window-y="-11"
     inkscape:window-maximized="1"
     inkscape:current-layer="svg" />
  <path
     d="m 191.2832,232.00195 c -1.404,-0.13725 -3.7325,-0.2322 -6.56054,-0.28711 -2.82805,-0.0549 -6.15485,-0.0688 -9.55079,-0.0469 -3.2236,0.0208 -6.47946,0.079 -9.46289,0.16406 -2.78533,0.14831 -5.61265,0.32723 -8.48828,0.5625 -3.22034,0.26347 -6.47781,0.57957 -9.72851,0.94531 -2.69298,0.303 -5.36652,0.6606 -8.02539,1.0293 -1.53673,0.22269 -3.04413,0.44147 -4.54297,0.67773 -1.79574,0.27782 -3.58958,0.55529 -5.33594,0.86133 -1.97428,0.34455 -3.61015,0.68427 -5.3418,1.02735 -1.55383,0.30972 -3.16287,0.59996 -4.64648,0.93164 -2.096,0.4685 -3.83131,0.97445 -5.25586,1.5625 -0.60085,0.24803 -1.11755,0.51983 -1.61133,0.80078 -0.4799,0.3194 -0.99547,0.60831 -1.39258,0.99414 -0.6444,0.62611 -1.18066,1.3311 -1.60742,2.08984 -0.38459,0.68378 -0.65121,1.42079 -0.85937,2.17188 -0.0402,0.20371 -0.10725,0.38318 -0.13672,0.59765 -0.005,0.0257 -0.005,0.0524 -0.01,0.0781 -0.0826,0.63156 -0.12243,1.30574 -0.12109,2.03711 0.002,0.964 0.0847,1.85986 0.24609,2.68359 0.0204,0.10423 0.0689,0.18321 0.0918,0.28516 0.21948,0.73496 0.48675,1.45961 0.87305,2.13281 0.43943,0.76581 0.98575,1.47854 1.64062,2.11524 0.54542,0.53028 1.20971,0.96949 1.9043,1.37695 0.35073,0.16039 0.66693,0.35664 1.05469,0.47656 0.75351,0.23303 1.57703,0.39081 2.46679,0.46875 0.88977,0.078 1.84589,0.0762 2.86719,-0.004 1.0213,-0.0801 2.10774,-0.23934 3.25586,-0.48046 2.197,-0.461 5.25492,-1.09325 6.79492,-1.40625 2.885,-0.585 10.76544,-1.85844 16.39844,-2.64844 1.76,-0.246 3.7708,-0.53177 4.4668,-0.63477 2.04599,-0.30325 4.27179,-0.55394 6.63476,-0.75195 2.36297,-0.19801 4.86226,-0.34359 7.45508,-0.43945 2.59282,-0.0959 5.28008,-0.14186 8.01562,-0.13868 2.14023,0.002 4.3219,0.0597 6.50196,0.1211 0.58666,0.007 1.22724,-0.013 1.80078,-0.002 3.57314,0.0687 6.86439,0.21104 9.52539,0.43554 3.16662,0.26725 6.24231,0.59238 9.23828,0.97852 0.81576,0.10514 1.58235,0.25285 2.38672,0.36719 0.98047,0.13014 2.0194,0.23583 2.96484,0.3789 1.07711,0.163 2.02232,0.36541 3.04688,0.54492 0.11971,0.0213 0.2477,0.0351 0.36719,0.0566 0.10974,0.0198 0.21271,0.0465 0.32226,0.0664 1.04669,0.18957 2.17194,0.35755 3.15234,0.56445 0.73997,0.15614 1.42993,0.37422 2.16211,0.53907 0.9054,0.19707 1.84247,0.35658 2.73633,0.56836 2.13691,0.50628 4.22072,1.09252 6.30078,1.68554 0.0935,0.027 0.19367,0.0451 0.28711,0.0723 0.0273,0.008 0.0528,0.0194 0.0801,0.0273 0.46033,0.13257 0.93853,0.23609 1.39649,0.37305 2.64493,0.791 5.25046,1.65564 7.83203,2.59765 0.54991,0.20067 1.08894,0.44461 1.63672,0.65235 0.0154,0.006 0.0315,0.01 0.0469,0.0156 0.0402,0.0152 0.079,0.0355 0.11914,0.0508 1.96744,0.749 3.93299,1.50104 5.88086,2.34375 1.22221,0.52878 2.43789,1.13826 3.65625,1.70508 0.33926,0.15693 0.68654,0.27575 1.02539,0.43555 0.27432,0.12937 0.54623,0.29451 0.82031,0.42578 0.70305,0.33859 1.40829,0.63271 2.11133,0.98438 2.53528,1.26814 5.07263,2.6212 7.625,4.06445 1.319,0.7455 2.669,1.45311 3.78125,1.99023 1.11225,0.53713 1.98647,0.90561 2.35547,0.97461 0.61431,0.11525 1.21352,0.17605 1.79492,0.1875 0.58141,0.0115 1.14553,-0.0283 1.68946,-0.11133 1.08785,-0.16606 2.09532,-0.51181 3.00585,-1 0.91054,-0.48818 1.72325,-1.11764 2.41993,-1.85351 0.69668,-0.73587 1.27833,-1.5772 1.72461,-2.48633 0.44628,-0.90912 0.75863,-1.88659 0.91796,-2.89453 0.15934,-1.00794 0.16611,-2.04581 0.002,-3.07813 -0.16415,-1.03231 -0.49926,-2.05876 -1.02344,-3.04101 -0.26209,-0.49113 -0.57269,-0.9709 -0.93164,-1.43555 -0.35895,-0.46465 -0.76619,-0.91487 -1.22656,-1.34375 -0.6045,-0.563 -3.23151,-2.14023 -6.40625,-3.91211 -3.17475,-1.77187 -6.89872,-3.73867 -9.69922,-5.07617 -2.06625,-0.98662 -4.18995,-1.93837 -6.36133,-2.85351 -2.17137,-0.91515 -4.39051,-1.79213 -6.64258,-2.62891 -2.25207,-0.83678 -4.53737,-1.63324 -6.8457,-2.38477 -2.30833,-0.75152 -4.63836,-1.45781 -6.97852,-2.11718 -2.34015,-0.65938 -4.69151,-1.2717 -7.03906,-1.83204 -2.34755,-0.56033 -4.69098,-1.06903 -7.02148,-1.52343 -2.33051,-0.45441 -4.64652,-0.85373 -6.93555,-1.19532 -2.28903,-0.34158 -4.55227,-0.62578 -6.77539,-0.84765 -2.31,-0.231 -6.05241,-0.60127 -8.31641,-0.82227 z"
     style="fill:#1b1413;fill-rule:evenodd"
     id="path48" />
  <path
     d="m 189.7832,180.67383 c -4.3496,-0.28047 -8.71096,-0.51218 -13.17578,-0.56055 -4.00606,-0.0434 -8.15139,0.0967 -12.30078,0.23633 -2.77942,0.11705 -5.56147,0.24986 -8.32617,0.45508 -3.37986,0.25088 -6.7369,0.56684 -10.04102,0.94336 -3.97886,0.4967 -8.03169,1.06602 -12.00586,1.75586 -4.48749,0.77893 -8.85623,1.66114 -12.84961,2.60156 -3.99337,0.94042 -7.6103,1.93917 -10.59179,2.95117 -0.68569,0.23275 -1.33222,0.50785 -1.9375,0.82031 -0.60529,0.31247 -1.16897,0.66288 -1.69336,1.04492 -0.52439,0.38205 -1.00818,0.7968 -1.45117,1.23829 -0.443,0.44148 -0.84592,0.90959 -1.20703,1.40039 -0.72223,0.98158 -1.28015,2.05191 -1.67188,3.16992 -0.39173,1.118 -0.61655,2.28369 -0.67383,3.45703 -0.0573,1.17334 0.0529,2.35435 0.33399,3.50195 0.28111,1.1476 0.732,2.26197 1.35547,3.30274 0.31173,0.52038 0.66639,1.02152 1.06445,1.5 0.39806,0.47847 0.83934,0.93489 1.32422,1.36133 0.48487,0.42643 1.01374,0.82324 1.58593,1.1875 0.5722,0.36425 1.18766,0.69439 1.84766,0.98632 0.7635,0.33775 1.44528,0.59105 2.11524,0.75977 0.66995,0.16872 1.32871,0.25428 2.05078,0.25391 0.72206,-3.8e-4 1.50595,-0.0863 2.42578,-0.25586 0.91982,-0.16953 1.97503,-0.42297 3.23828,-0.76172 4.68124,-1.25475 9.2048,-2.33313 13.64648,-3.24414 4.44169,-0.91102 8.80201,-1.65438 13.15625,-2.24219 4.35425,-0.58781 8.70216,-1.01955 13.1211,-1.30469 4.41893,-0.28514 8.90917,-0.42473 13.54492,-0.42773 3.38375,-0.002 6.46724,0.0412 9.42383,0.14258 2.95659,0.10137 5.78569,0.26114 8.66406,0.49414 0.7521,0.0609 1.57805,0.17305 2.33984,0.24414 0.14986,0.0131 0.30338,0.0159 0.45313,0.0293 0.64014,0.0572 1.26616,0.15221 1.90429,0.21485 1.41541,0.14898 2.76053,0.25656 4.25782,0.44336 0.41544,0.0518 0.93383,0.13651 1.35742,0.1914 0.88261,0.10971 1.77943,0.18053 2.6582,0.30078 1.2649,0.1731 2.50664,0.41246 3.76367,0.60743 0.87454,0.12988 1.59052,0.2118 2.50977,0.35351 0.43305,0.0668 0.94559,0.20069 1.38672,0.27344 0.78034,0.13596 1.57423,0.2344 2.35156,0.37891 2.05705,0.38241 4.08484,0.84869 6.12109,1.29101 0.80067,0.17666 1.51318,0.26924 2.32422,0.45899 0.19016,0.0445 0.3875,0.10911 0.57813,0.15429 0.27287,0.0634 0.55171,0.10935 0.82422,0.17383 3.25595,0.77037 6.48537,1.61914 9.68945,2.54492 0.58461,0.16892 1.15732,0.37473 1.74023,0.54883 0.0312,0.009 0.0625,0.0161 0.0937,0.0254 0.0982,0.0293 0.18702,0.0643 0.28516,0.0937 2.48342,0.74698 4.96483,1.50059 7.41797,2.3418 1.02039,0.3499 2.02187,0.75878 3.03711,1.125 0.55798,0.19939 1.18255,0.37255 1.73047,0.57422 0.58578,0.2156 1.03245,0.44427 1.60547,0.66211 1.00195,0.38123 2.01667,0.71986 3.01367,1.11718 0.78771,0.31383 1.98805,0.92845 2.91015,1.32813 1.05501,0.45655 2.31818,0.9 3.29102,1.35742 1.35701,0.63783 2.48688,1.23351 3.7832,1.86914 0.56109,0.27235 1.02812,0.44721 1.58008,0.7207 1.00408,0.49752 1.84393,0.95137 2.7793,1.4336 0.25815,0.13315 0.60655,0.29204 0.85547,0.42187 0.17023,0.0888 0.21135,0.12581 0.37695,0.21289 0.50534,0.26578 1.11667,0.56339 1.58008,0.81446 1.64004,0.88853 2.9885,1.67059 3.84375,2.24609 0.69981,0.47094 1.40938,0.8724 2.12109,1.20508 0.71172,0.33268 1.42543,0.59807 2.13867,0.80078 0.71325,0.20271 1.42645,0.34281 2.13086,0.42383 0.70442,0.081 1.40073,0.10271 2.08594,0.0703 0.68522,-0.0324 1.35803,-0.12029 2.01367,-0.25781 0.65565,-0.13752 1.29445,-0.32423 1.91016,-0.5586 0.61571,-0.23436 1.20803,-0.51496 1.77344,-0.83789 0.5654,-0.32292 1.10464,-0.68859 1.60937,-1.09179 0.50474,-0.40321 0.97646,-0.84512 1.41016,-1.32032 0.43369,-0.47519 0.82935,-0.98452 1.18164,-1.52343 0.35229,-0.53891 0.66136,-1.10683 0.92187,-1.70118 0.26052,-0.59434 0.47249,-1.21398 0.63086,-1.85546 0.15837,-0.64149 0.26274,-1.30598 0.3086,-1.98633 0.0459,-0.68035 0.0321,-1.37696 -0.0449,-2.08789 -0.077,-0.71094 -0.21747,-1.43474 -0.42773,-2.16797 -0.21026,-0.73323 -0.48987,-1.47541 -0.84375,-2.22266 -0.33,-0.69662 -0.92632,-1.46654 -1.76172,-2.29492 -0.83539,-0.82838 -1.91009,-1.71628 -3.19336,-2.64648 -1.00111,-0.72567 -2.22818,-1.49615 -3.4707,-2.26758 -0.32424,-0.18997 -0.55658,-0.3485 -0.9043,-0.54688 -2.14875,-1.22575 -4.35322,-2.41891 -6.60937,-3.57617 -2.25616,-1.15726 -4.56231,-2.27887 -6.91407,-3.36328 -2.15237,-0.99247 -4.35318,-1.94509 -6.57617,-2.87305 -2.2414,-0.91998 -4.53081,-1.83205 -6.89648,-2.71289 -2.65986,-0.99038 -5.38582,-1.9487 -8.14844,-2.86133 -4.87449,-1.61024 -9.8126,-3.05617 -14.81055,-4.33593 -4.06076,-1.0398 -8.18633,-1.8944 -12.32226,-2.71485 -2.71627,-0.53218 -5.41627,-0.98749 -8.11133,-1.42383 -2.38061,-0.38566 -4.76173,-0.76794 -7.16406,-1.08203 -2.7855,-0.36514 -5.58111,-0.64531 -8.37696,-0.91015 -2.35221,-0.22409 -4.70565,-0.4432 -7.07617,-0.59961 z"
     style="fill:#1b1413;fill-rule:evenodd"
     id="path23" />
  <path
     d="m 176.87305,126.06641 c -4.47381,0.004 -8.95413,0.0391 -12.75977,0.10547 -3.80564,0.0664 -6.93614,0.16351 -8.71289,0.29101 -5.80924,0.41675 -11.93335,1.06531 -17.94336,1.86328 -6.01001,0.79797 -11.90546,1.7451 -17.25976,2.76172 -2.67716,0.50831 -5.21963,1.03391 -7.57227,1.56641 -2.35264,0.53249 -4.51643,1.07301 -6.4375,1.60937 -1.92107,0.53636 -3.59998,1.06799 -4.98242,1.58789 -1.38244,0.5199 -2.468331,1.02664 -3.20508,1.50977 -0.750374,0.49194 -1.435579,1.02463 -2.056641,1.59179 -0.621061,0.56717 -1.178503,1.17021 -1.673828,1.79883 -0.495324,0.62862 -0.927616,1.28463 -1.300781,1.96094 -0.373165,0.67631 -0.686824,1.3718 -0.941406,2.08203 -0.254582,0.71023 -0.450269,1.43368 -0.589844,2.16406 -0.139575,0.73039 -0.223808,1.46831 -0.251953,2.20508 -0.02815,0.73677 3.7e-4,1.47374 0.08008,2.20313 0.07971,0.72938 0.210547,1.45192 0.394531,2.16015 0.183984,0.70824 0.420394,1.40091 0.705078,2.07422 0.284684,0.67332 0.618193,1.32655 1,1.95117 0.381808,0.62463 0.811756,1.22104 1.28711,1.78321 0.475354,0.56217 0.997176,1.09022 1.5625,1.57617 0.565323,0.48595 1.174455,0.93021 1.826172,1.32617 0.651717,0.39596 1.345544,0.74296 2.080074,1.03516 0.73454,0.2922 1.5085,0.52845 2.32227,0.70312 0.81377,0.17467 1.6672,0.28866 2.55664,0.33203 1.391,0.068 2.38035,0.0544 3.65234,-0.14843 1.272,-0.20288 2.82666,-0.59561 5.34766,-1.28711 3.78262,-1.03775 7.78045,-1.9711 11.94727,-2.79883 4.16681,-0.82773 8.50357,-1.54969 12.96484,-2.16406 4.46127,-0.61438 9.0469,-1.12186 13.71289,-1.51954 4.66599,-0.39767 9.41044,-0.68565 14.19141,-0.86328 4.78096,-0.17762 9.59809,-0.24498 14.40429,-0.19922 4.80621,0.0458 9.60205,0.20407 14.34375,0.47657 4.74171,0.2725 9.43011,0.65953 14.01758,1.16211 4.58747,0.50257 9.07447,1.12142 13.41797,1.85742 7.14399,1.21 15.31178,2.758 17.80078,3.375 1.21,0.299 3.09922,0.76144 4.19922,1.02344 2.1065,0.50325 4.52269,1.14918 7.05859,1.87695 2.53591,0.72776 5.19123,1.53663 7.77735,2.36719 2.58612,0.83056 5.10222,1.6825 7.35937,2.49414 2.25716,0.81164 4.25569,1.5829 5.80469,2.2539 0.66,0.285 2.01,0.83661 3,1.22461 1.569,0.614 12.79362,6.22488 18.59961,9.29688 0.85325,0.4515 1.75745,0.7841 2.69141,1.00781 0.93395,0.22371 1.89879,0.33789 2.87304,0.34961 0.97425,0.0117 1.9575,-0.0792 2.93164,-0.26367 0.97414,-0.18448 1.93747,-0.4613 2.8711,-0.82617 0.93362,-0.36488 1.8387,-0.81623 2.6914,-1.34571 0.85271,-0.52947 1.65339,-1.13812 2.38477,-1.8164 0.73137,-0.67828 1.39325,-1.427 1.96289,-2.23828 0.56964,-0.81129 1.04852,-1.68479 1.41601,-2.61329 0.407,-1.02812 0.71143,-2.03542 0.91407,-3.01953 0.20263,-0.9841 0.30236,-1.94496 0.30078,-2.88476 -0.002,-0.93981 -0.10489,-1.85674 -0.31055,-2.75196 -0.20566,-0.89521 -0.51423,-1.76879 -0.92383,-2.61914 -0.40959,-0.85034 -0.91982,-1.67919 -1.5332,-2.48437 -0.61338,-0.80519 -1.32946,-1.58596 -2.14648,-2.3457 -0.81703,-0.75975 -1.73534,-1.49693 -2.75586,-2.21094 -1.02052,-0.71401 -2.14332,-1.40622 -3.36719,-2.07422 -2.649,-1.44575 -5.41034,-2.85604 -8.26367,-4.22461 -2.85334,-1.36857 -5.79775,-2.69406 -8.81641,-3.97266 -3.01866,-1.27859 -6.11088,-2.50972 -9.25586,-3.68554 -3.14497,-1.17582 -6.34389,-2.29718 -9.57617,-3.35743 -3.23228,-1.06024 -6.49873,-2.0603 -9.7793,-2.99218 -3.28057,-0.93188 -6.57538,-1.79522 -9.86523,-2.58594 -3.28985,-0.79072 -6.57387,-1.50777 -9.83399,-2.14453 -3.26011,-0.63676 -6.49612,-1.19406 -9.6875,-1.66406 -1.60699,-0.237 -4.00226,-0.6025 -5.32226,-0.8125 -2.5635,-0.408 -6.99772,-0.94293 -11.82422,-1.45118 -4.8265,-0.50825 -10.04529,-0.98815 -14.17578,-1.28515 -1.728,-0.124 -4.82226,-0.21605 -8.60352,-0.27539 -3.78126,-0.0593 -8.24885,-0.0862 -12.72265,-0.082 z"
     style="fill:#1b1413;fill-rule:evenodd"
     id="path20" />
  <path
     d="m 211.79492,42.880859 c -1.28871,-0.09607 -2.53507,-0.198123 -4.15625,-0.259765 -2.32507,-0.08841 -4.8968,-0.141375 -7.44336,-0.15625 -2.54656,-0.01487 -5.06781,0.0085 -7.29101,0.07031 -2.2232,0.06184 -4.14891,0.162938 -5.50391,0.304688 -3.721,0.389499 -6.40638,0.702672 -9.21875,1.107422 -2.81237,0.404749 -5.75293,0.90075 -9.98242,1.65625 -1.526,0.272499 -4.59585,1.016438 -7.82422,1.867187 -3.22837,0.850749 -6.61489,1.808313 -8.77539,2.507813 -2.828,0.913999 -7.49139,2.602344 -9.40039,3.402343 -0.66,0.277 -2.46,1.017439 -4,1.648438 -2.1539,0.881505 -4.29507,1.837886 -6.42578,2.849609 -0.36332,0.171644 -0.72161,0.360026 -1.08399,0.535156 -1.62274,0.788609 -3.23681,1.618331 -4.84179,2.478516 -2.77681,1.478184 -5.51374,3.077288 -8.21875,4.751953 -1.41416,0.881196 -2.81213,1.803619 -4.20508,2.736328 -1.42956,0.952121 -2.83435,1.950708 -4.23828,2.955078 -1.17154,0.841409 -2.35505,1.659283 -3.50782,2.535157 -1.41746,1.07699 -2.79887,2.213157 -4.18554,3.339843 -0.95872,0.778578 -1.916379,1.556983 -2.859378,2.359375 -1.633343,1.388631 -3.257451,2.789115 -4.839843,4.242188 -0.107791,0.09898 -0.208864,0.205418 -0.316407,0.304687 -1.959898,1.815365 -3.887937,3.668997 -5.763671,5.583985 -1.092162,1.108178 -2.15066,2.246072 -3.210938,3.382812 -2.373075,2.563438 -4.720436,5.1541 -6.929687,7.867186 -0.08884,0.10808 -0.171225,0.21986 -0.259766,0.32813 -2.687968,3.31821 -5.25731,6.73538 -7.673828,10.25195 -2.471802,3.59702 -4.794174,7.29136 -6.951172,11.06836 -0.968999,1.697 -2.698814,5.09291 -4.335938,8.44141 -1.637123,3.34849 -3.180797,6.6492 -3.779296,8.1582 -0.392,0.99 -1.024298,2.52039 -1.404297,3.40039 -0.59975,1.38725 -1.315579,3.35489 -2.072266,5.64258 -0.756687,2.28768 -1.55461,4.8953 -2.318359,7.56054 -0.763749,2.66525 -1.494298,5.38827 -2.115235,7.90821 -0.620937,2.51993 -1.132687,4.8377 -1.460937,6.68945 -0.254,1.43 -0.617641,3.41039 -0.806641,4.40039 -0.390999,2.041 -1.00375,7.33859 -1.59375,13.76758 -0.256999,2.8025 -0.386094,7.38661 -0.386719,11.89648 -6.24e-4,4.50987 0.128266,8.94618 0.384766,11.45118 0.4095,4.00099 0.729297,6.90201 1.044922,9.33789 0.315625,2.43587 0.625719,4.40737 1.011719,6.54687 0.367499,2.035 1.052625,5.23307 1.75,8.27344 0.697374,3.04037 1.407125,5.92267 1.828125,7.32617 1.154999,3.851 4.486906,13.662 4.753906,14 0.173,0.22 0.448328,0.85039 0.611328,1.40039 0.283,0.955 0.573612,1.64722 2.599609,6.19922 1.131999,2.54243 2.351979,5.06434 3.654297,7.56055 1.302319,2.49621 2.686974,4.96599 4.148438,7.40625 1.461464,2.44025 2.999938,4.85004 4.609375,7.22461 1.609437,2.37456 3.290873,4.71452 5.037109,7.01367 1.746237,2.29915 3.557825,4.55748 5.429688,6.77148 1.871862,2.214 3.802747,4.38479 5.789062,6.50391 1.986316,2.11912 4.027593,4.18666 6.117188,6.20117 2.089595,2.01451 4.228455,3.97483 6.410156,5.875 2.181701,1.90017 4.40729,3.74148 6.66992,5.51758 2.26264,1.7761 4.56214,3.48661 6.89453,5.1289 2.3324,1.6423 4.69691,3.21609 7.08789,4.71485 2.39098,1.49876 4.80771,2.92404 7.2461,4.26953 2.43839,1.34549 4.89841,2.61047 7.37304,3.79297 2.47464,1.1825 4.96515,2.28124 7.46485,3.29101 2.4997,1.00978 5.00789,1.9305 7.52148,2.75782 2.51359,0.82731 5.03252,1.56214 7.54883,2.19726 0.66,0.166 3.36,0.87046 6,1.56446 2.959,0.77824 6.02363,1.46109 9.16797,2.04687 3.14434,0.58578 6.3682,1.07361 9.64062,1.4668 3.27243,0.39318 6.59424,0.69015 9.9375,0.89062 3.34326,0.20047 6.70762,0.30488 10.06446,0.3125 3.35684,0.008 6.70636,-0.0803 10.01953,-0.26562 3.31317,-0.18535 6.59049,-0.46727 9.80273,-0.84571 3.21224,-0.37843 6.36001,-0.85412 9.41407,-1.42578 3.05405,-0.57165 6.01489,-1.2389 8.85351,-2.0039 1.155,-0.311 3.13344,-0.84269 4.39844,-1.17969 2.14525,-0.57156 4.28841,-1.20184 6.42383,-1.88867 2.13542,-0.68684 4.26327,-1.43078 6.38281,-2.22852 2.11954,-0.79774 4.23051,-1.64846 6.32812,-2.55273 2.09762,-0.90427 4.18232,-1.86076 6.25196,-2.86719 2.06964,-1.00643 4.12453,-2.06375 6.16015,-3.16797 2.03562,-1.10422 4.05133,-2.25549 6.04688,-3.45312 1.99555,-1.19764 3.97049,-2.44184 5.91992,-3.72852 1.94943,-1.28668 3.87422,-2.61692 5.77148,-3.98828 1.89727,-1.37136 3.76643,-2.78467 5.60547,-4.23633 1.83905,-1.45166 3.64709,-2.94116 5.42188,-4.46875 1.77478,-1.52759 3.51623,-3.09225 5.2207,-4.69141 1.70447,-1.59915 3.37384,-3.23209 5.00195,-4.89843 1.62812,-1.66634 3.21602,-3.36655 4.76172,-5.09571 1.54571,-1.72915 3.04862,-3.48779 4.50586,-5.27539 1.45725,-1.7876 2.86773,-3.60364 4.23047,-5.44531 1.36274,-1.84167 2.67727,-3.71019 3.93945,-5.60156 1.29975,-1.94775 2.83219,-4.43039 4.4004,-7.08789 1.5682,-2.6575 3.17222,-5.48886 4.61328,-8.13086 1.44106,-2.642 2.72034,-5.09485 3.63867,-6.9961 0.91833,-1.90124 1.47656,-3.25029 1.47656,-3.68554 0,-0.296 0.15285,-0.70897 0.33984,-0.91797 0.1905,-0.2125 0.61597,-1.16672 1.16797,-2.55664 0.552,-1.38992 1.22999,-3.2168 1.92774,-5.17774 1.3955,-3.92187 2.86678,-8.37976 3.55078,-10.94726 0.337,-1.265 0.87055,-3.25106 1.18555,-4.41406 0.76125,-2.811 1.42682,-5.74337 1.99609,-8.77149 0.56927,-3.02812 1.04252,-6.15047 1.41992,-9.33984 0.3774,-3.18937 0.65812,-6.44549 0.84375,-9.74024 0.18563,-3.29474 0.27556,-6.62841 0.26953,-9.97265 -0.006,-3.34425 -0.1071,-6.69924 -0.30468,-10.03711 -0.19759,-3.33787 -0.49183,-6.65993 -0.88086,-9.93555 -0.38904,-3.27562 -0.87274,-6.50461 -1.45313,-9.66211 -0.58038,-3.15749 -1.25572,-6.24306 -2.02734,-9.22656 -0.655,-2.53 -1.30627,-5.04961 -1.44727,-5.59961 -0.50912,-1.99206 -1.08543,-3.99586 -1.72461,-6.00586 -0.63917,-2.01 -1.34064,-4.02573 -2.10351,-6.04492 -0.76288,-2.01919 -1.58658,-4.04092 -2.4668,-6.06055 -0.88022,-2.01962 -1.81738,-4.03752 -2.80859,-6.04883 -0.99122,-2.0113 -2.03695,-4.01553 -3.13282,-6.00976 -1.09586,-1.99423 -2.24139,-3.97886 -3.43554,-5.94727 -1.19416,-1.9684 -2.43656,-3.92165 -3.72266,-5.85547 -1.2861,-1.93382 -2.61659,-3.8478 -3.98828,-5.73828 -1.37169,-1.89048 -2.78345,-3.75731 -4.23438,-5.5957 -1.45092,-1.83839 -2.94103,-3.648238 -4.46484,-5.425782 -1.52381,-1.777544 -3.08153,-3.522525 -4.67187,-5.230469 -1.59035,-1.707943 -3.21276,-3.378224 -4.86329,-5.007812 -1.65053,-1.629588 -3.32884,-3.21924 -5.0332,-4.761719 -1.70436,-1.542479 -3.43566,-3.03776 -5.1875,-4.484375 -1.75184,-1.446615 -3.52539,-2.84355 -5.31836,-4.185547 -1.79297,-1.341996 -3.60389,-2.630751 -5.43164,-3.859375 -3.413,-2.294997 -9.57484,-6.138672 -9.83984,-6.138672 -0.097,0 -0.86503,-0.434797 -1.70703,-0.966797 -1.66,-1.046998 -9.14369,-4.858673 -12.05469,-6.138671 -0.99,-0.436 -2.96844,-1.287532 -4.39844,-1.894532 -1.43,-0.605999 -3.1892,-1.359828 -3.9082,-1.673828 -1.403,-0.612999 -10.30697,-3.612625 -12.29297,-4.140625 -2.62075,-0.697499 -5.22528,-1.338432 -7.80859,-1.925781 -2.58332,-0.587349 -5.14588,-1.119555 -7.68165,-1.595703 -2.53576,-0.476148 -5.04534,-0.897823 -7.52343,-1.261719 -2.4781,-0.363896 -4.92368,-0.671281 -7.33399,-0.921875 -0.83207,-0.08651 -1.63385,-0.126297 -2.45703,-0.199219 z m -34.92187,83.185551 c 4.4738,-0.004 8.94139,0.0227 12.72265,0.082 3.78126,0.0593 6.87552,0.15139 8.60352,0.27539 4.13049,0.297 9.34928,0.7769 14.17578,1.28515 4.8265,0.50825 9.26072,1.04318 11.82422,1.45118 1.32,0.21 3.71527,0.5755 5.32226,0.8125 3.19138,0.47 6.42739,1.0273 9.6875,1.66406 3.26012,0.63676 6.54414,1.35381 9.83399,2.14453 3.28985,0.79072 6.58466,1.65406 9.86523,2.58594 3.28057,0.93188 6.54702,1.93194 9.7793,2.99218 3.23228,1.06025 6.4312,2.18161 9.57617,3.35743 3.14498,1.17582 6.2372,2.40695 9.25586,3.68554 3.01866,1.2786 5.96307,2.60409 8.81641,3.97266 2.85333,1.36857 5.61467,2.77886 8.26367,4.22461 1.22387,0.668 2.34667,1.36021 3.36719,2.07422 1.02052,0.71401 1.93883,1.45119 2.75586,2.21094 0.81702,0.75974 1.5331,1.54051 2.14648,2.3457 0.61338,0.80518 1.12361,1.63403 1.5332,2.48437 0.4096,0.85035 0.71817,1.72393 0.92383,2.61914 0.20566,0.89522 0.30896,1.81215 0.31055,2.75196 0.002,0.9398 -0.0982,1.90066 -0.30078,2.88476 -0.20264,0.98411 -0.50707,1.99141 -0.91407,3.01953 -0.36749,0.9285 -0.84637,1.802 -1.41601,2.61329 -0.56964,0.81128 -1.23152,1.56 -1.96289,2.23828 -0.73138,0.67828 -1.53206,1.28693 -2.38477,1.8164 -0.8527,0.52948 -1.75778,0.98083 -2.6914,1.34571 -0.93363,0.36487 -1.89696,0.64169 -2.8711,0.82617 -0.97414,0.18447 -1.95739,0.27539 -2.93164,0.26367 -0.97425,-0.0117 -1.93909,-0.1259 -2.87304,-0.34961 -0.93396,-0.22371 -1.83816,-0.55631 -2.69141,-1.00781 -5.80599,-3.072 -17.03061,-8.68288 -18.59961,-9.29688 -0.99,-0.388 -2.34,-0.93961 -3,-1.22461 -1.549,-0.671 -3.54753,-1.44226 -5.80469,-2.2539 -2.25715,-0.81164 -4.77325,-1.66358 -7.35937,-2.49414 -2.58612,-0.83056 -5.24144,-1.63943 -7.77735,-2.36719 -2.5359,-0.72777 -4.95209,-1.3737 -7.05859,-1.87695 -1.1,-0.262 -2.98922,-0.72444 -4.19922,-1.02344 -2.489,-0.617 -10.65679,-2.165 -17.80078,-3.375 -4.3435,-0.736 -8.8305,-1.35485 -13.41797,-1.85742 -4.58747,-0.50258 -9.27587,-0.88961 -14.01758,-1.16211 -4.7417,-0.2725 -9.53754,-0.4308 -14.34375,-0.47657 -4.8062,-0.0458 -9.62333,0.0216 -14.40429,0.19922 -4.78097,0.17763 -9.52542,0.46561 -14.19141,0.86328 -4.66599,0.39768 -9.25162,0.90516 -13.71289,1.51954 -4.46127,0.61437 -8.79803,1.33633 -12.96484,2.16406 -4.16682,0.82773 -8.16465,1.76108 -11.94727,2.79883 -2.521,0.6915 -4.07566,1.08423 -5.34766,1.28711 -1.27199,0.20287 -2.26134,0.21643 -3.65234,0.14843 -0.88944,-0.0434 -1.74287,-0.15736 -2.55664,-0.33203 -0.81377,-0.17467 -1.58773,-0.41092 -2.32227,-0.70312 -0.73453,-0.2922 -1.428357,-0.6392 -2.080074,-1.03516 -0.651717,-0.39596 -1.260849,-0.84022 -1.826172,-1.32617 -0.565324,-0.48595 -1.087146,-1.014 -1.5625,-1.57617 -0.475354,-0.56217 -0.905302,-1.15858 -1.28711,-1.78321 -0.381807,-0.62462 -0.715316,-1.27785 -1,-1.95117 -0.284684,-0.67331 -0.521094,-1.36598 -0.705078,-2.07422 -0.183984,-0.70823 -0.314823,-1.43077 -0.394531,-2.16015 -0.07971,-0.72939 -0.108224,-1.46636 -0.08008,-2.20313 0.02814,-0.73677 0.112378,-1.47469 0.251953,-2.20508 0.139575,-0.73038 0.335262,-1.45383 0.589844,-2.16406 0.254582,-0.71023 0.568241,-1.40572 0.941406,-2.08203 0.373165,-0.67631 0.805457,-1.33232 1.300781,-1.96094 0.495325,-0.62862 1.052767,-1.23166 1.673828,-1.79883 0.621062,-0.56716 1.306267,-1.09985 2.056641,-1.59179 0.736749,-0.48313 1.82264,-0.98987 3.20508,-1.50977 1.38244,-0.5199 3.06135,-1.05153 4.98242,-1.58789 1.92107,-0.53636 4.08486,-1.07688 6.4375,-1.60937 2.35264,-0.5325 4.89511,-1.0581 7.57227,-1.56641 5.3543,-1.01662 11.24975,-1.96375 17.25976,-2.76172 6.01001,-0.79797 12.13412,-1.44653 17.94336,-1.86328 1.77675,-0.1275 4.90725,-0.22461 8.71289,-0.29101 3.80564,-0.0664 8.28596,-0.10135 12.75977,-0.10547 z m -0.45313,54.03515 c 3.3733,0.0225 6.71097,0.11686 9.98047,0.28711 1.13722,0.0593 2.24961,0.21039 3.38281,0.28516 0.85627,0.0552 1.74042,0.047 2.59375,0.11133 1.503,0.11329 2.98635,0.34656 4.48242,0.48828 1.7685,0.16848 3.56264,0.24257 5.32032,0.44922 1.02877,0.12095 2.03169,0.32693 3.05664,0.46093 0.86901,0.11392 1.74413,0.16139 2.61328,0.28516 1.50924,0.21491 3.03885,0.55209 4.55078,0.79687 1.75048,0.28359 3.52934,0.47469 5.26758,0.79688 0.95834,0.17763 1.88922,0.4376 2.84375,0.62695 0.95551,0.18721 1.89402,0.30083 2.85351,0.5 2.67738,0.55575 5.34543,1.16361 7.99805,1.81836 2.65263,0.65476 5.29018,1.35607 7.90625,2.10547 2.61607,0.74941 5.20964,1.54507 7.77734,2.38477 2.56771,0.83969 5.10966,1.72476 7.61719,2.65039 2.50753,0.92562 4.98047,1.89319 7.41602,2.90039 0.20648,0.0854 0.40346,0.17967 0.60937,0.26562 0.27874,0.11441 0.58096,0.22307 0.85742,0.33789 2.49959,1.03821 4.90377,2.09234 7.18555,3.14844 2.28179,1.0561 4.4408,2.11414 6.44727,3.1582 2.00646,1.04407 3.86152,2.07408 5.53515,3.07618 0.368,0.22034 0.62831,0.42124 0.97852,0.63867 0.99965,0.58569 1.99408,1.16801 2.78711,1.6875 1.05025,0.68798 1.93117,1.32722 2.66992,1.9414 0.73875,0.61419 1.33506,1.20241 1.82031,1.79102 0.48525,0.58861 0.85869,1.17781 1.14844,1.78906 0.35388,0.74725 0.63349,1.48943 0.84375,2.22266 0.21026,0.73323 0.35072,1.45703 0.42773,2.16797 0.077,0.71093 0.0908,1.40754 0.0449,2.08789 -0.0459,0.68035 -0.15023,1.34484 -0.3086,1.98633 -0.15837,0.64148 -0.37034,1.26112 -0.63086,1.85546 -0.26051,0.59435 -0.56958,1.16227 -0.92187,1.70118 -0.35229,0.53891 -0.74795,1.04824 -1.18164,1.52343 -0.4337,0.4752 -0.90542,0.91711 -1.41016,1.32032 -0.50473,0.4032 -1.04397,0.76887 -1.60937,1.09179 -0.56541,0.32293 -1.15773,0.60353 -1.77344,0.83789 -0.61571,0.23437 -1.25451,0.42108 -1.91016,0.5586 -0.65564,0.13752 -1.32845,0.22542 -2.01367,0.25781 -0.68521,0.0324 -1.38152,0.0107 -2.08594,-0.0703 -0.70441,-0.081 -1.41761,-0.22112 -2.13086,-0.42383 -0.71324,-0.20271 -1.42695,-0.4681 -2.13867,-0.80078 -0.71171,-0.33268 -1.42128,-0.73414 -2.12109,-1.20508 -1.02476,-0.68956 -3.04151,-1.80784 -5.42383,-3.06055 -0.39409,-0.20727 -0.81778,-0.42099 -1.23242,-0.63476 -1.31606,-0.6788 -2.86556,-1.42183 -4.35938,-2.1543 -2.51203,-1.21932 -4.83293,-2.2551 -7.07422,-3.22656 -1.89922,-0.82189 -3.80922,-1.64142 -5.92382,-2.44531 -1.10907,-0.42199 -2.22074,-0.83405 -3.33594,-1.23633 -3.37095,-1.20457 -6.85378,-2.38643 -10.45508,-3.4668 -0.1268,-0.0381 -0.25202,-0.0812 -0.37891,-0.11914 -4.07664,-1.21513 -8.21354,-2.31002 -12.2539,-3.26758 -0.96097,-0.22323 -1.93677,-0.40353 -2.90235,-0.61328 -2.91851,-0.64393 -5.77749,-1.22544 -8.47265,-1.66992 -1.29296,-0.22528 -2.5952,-0.42513 -3.89649,-0.62695 -2.23789,-0.33238 -4.41777,-0.64851 -6.42187,-0.90821 -1.86441,-0.23174 -3.73352,-0.45005 -5.61524,-0.63476 -0.78361,-0.0825 -1.58997,-0.17253 -2.35742,-0.24414 -3.27405,-0.28606 -6.57093,-0.51121 -9.89843,-0.65625 -3.47982,-0.15168 -6.98943,-0.22686 -10.5293,-0.22461 -4.63575,0.003 -9.12599,0.14259 -13.54492,0.42773 -4.41894,0.28514 -8.76685,0.71688 -13.1211,1.30469 -4.35424,0.58781 -8.71456,1.33117 -13.15625,2.24219 -4.44168,0.91101 -8.96524,1.98939 -13.64648,3.24414 -1.26325,0.33875 -2.31846,0.59219 -3.23828,0.76172 -0.91983,0.16953 -1.70372,0.25548 -2.42578,0.25586 -0.72207,3.7e-4 -1.38083,-0.0852 -2.05078,-0.25391 -0.66996,-0.16872 -1.35174,-0.42202 -2.11524,-0.75977 -0.66,-0.29193 -1.27546,-0.62207 -1.84766,-0.98632 -0.57219,-0.36426 -1.10106,-0.76107 -1.58593,-1.1875 -0.48488,-0.42644 -0.92616,-0.88286 -1.32422,-1.36133 -0.39806,-0.47848 -0.75272,-0.97962 -1.06445,-1.5 -0.62347,-1.04077 -1.07436,-2.15514 -1.35547,-3.30274 -0.28112,-1.1476 -0.39127,-2.32861 -0.33399,-3.50195 0.0573,-1.17334 0.2821,-2.33903 0.67383,-3.45703 0.39173,-1.11801 0.94965,-2.18834 1.67188,-3.16992 0.36111,-0.4908 0.76403,-0.95891 1.20703,-1.40039 0.44299,-0.44149 0.92678,-0.85624 1.45117,-1.23829 0.52439,-0.38204 1.08807,-0.73245 1.69336,-1.04492 0.60528,-0.31246 1.25181,-0.58756 1.9375,-0.82031 2.41387,-0.81937 5.00084,-1.59083 7.73242,-2.31055 2.73158,-0.71972 5.60664,-1.3868 8.5957,-2 2.98907,-0.61319 6.09296,-1.17207 9.2793,-1.67187 3.18634,-0.4998 6.45589,-0.94078 9.7793,-1.32031 0.0199,-0.002 0.0406,-0.004 0.0605,-0.006 0.51394,-0.0642 1.04016,-0.16622 1.55078,-0.22657 4.46387,-0.52754 8.78649,-0.90554 12.70899,-1.09179 1.40509,-0.0668 2.72187,-0.0334 4.10742,-0.0801 0.63893,-0.0269 1.27541,-0.0814 1.91406,-0.10352 3.41688,-0.11838 6.82593,-0.16703 10.19922,-0.14453 z m -0.67187,51.375 c 2.89692,-0.0374 5.66956,-0.0141 8.27343,0.0723 2.60387,0.0863 5.03848,0.23587 7.26172,0.45312 2.264,0.221 6.00641,0.59127 8.31641,0.82227 2.22312,0.22187 4.48636,0.50607 6.77539,0.84765 2.28903,0.34159 4.60504,0.74091 6.93555,1.19532 2.3305,0.4544 4.67393,0.9631 7.02148,1.52343 2.34755,0.56034 4.69891,1.17266 7.03906,1.83204 2.34016,0.65937 4.67019,1.36566 6.97852,2.11718 2.30833,0.75153 4.59363,1.54799 6.8457,2.38477 2.25207,0.83678 4.47121,1.71376 6.64258,2.62891 2.17138,0.91514 4.29508,1.86689 6.36133,2.85351 2.8005,1.3375 6.52447,3.3043 9.69922,5.07617 3.17474,1.77188 5.80175,3.34911 6.40625,3.91211 0.46037,0.42888 0.86761,0.8791 1.22656,1.34375 0.35895,0.46465 0.66955,0.94442 0.93164,1.43555 0.52418,0.98225 0.85929,2.0087 1.02344,3.04101 0.16415,1.03232 0.15738,2.07019 -0.002,3.07813 -0.15933,1.00794 -0.47168,1.98541 -0.91796,2.89453 -0.44628,0.90913 -1.02793,1.75046 -1.72461,2.48633 -0.69668,0.73587 -1.50939,1.36533 -2.41993,1.85351 -0.91053,0.48819 -1.918,0.83394 -3.00585,1 -0.54393,0.083 -1.10805,0.12279 -1.68946,0.11133 -0.5814,-0.0115 -1.18061,-0.0722 -1.79492,-0.1875 -0.369,-0.069 -1.24322,-0.43748 -2.35547,-0.97461 -1.11225,-0.53712 -2.46225,-1.24473 -3.78125,-1.99023 -3.24458,-1.83464 -6.48392,-3.49112 -9.73633,-5.04883 -0.6147,-0.29604 -1.23059,-0.57516 -1.8457,-0.86133 -3.1552,-1.45945 -6.32186,-2.82894 -9.53711,-4.04883 -0.0556,-0.0212 -0.11043,-0.0453 -0.16601,-0.0664 -3.56108,-1.34607 -7.17344,-2.54897 -10.86524,-3.62305 -0.12116,-0.0349 -0.24585,-0.065 -0.36719,-0.0996 -2.94275,-0.84816 -5.97671,-1.56488 -9.03711,-2.2539 -1.75842,-0.38275 -3.50733,-0.77467 -5.31445,-1.10352 -0.2289,-0.0415 -0.45763,-0.0824 -0.68945,-0.12305 -1.95982,-0.34811 -3.9857,-0.63585 -6.01172,-0.92382 -1.54501,-0.20508 -3.05619,-0.42525 -4.67188,-0.59766 -2.641,-0.28182 -5.36145,-0.51891 -8.12109,-0.71094 -2.75964,-0.19203 -5.55846,-0.33834 -8.34961,-0.4375 -0.60742,-0.0216 -1.20219,-0.0161 -1.80859,-0.0332 -3.06821,-0.0378 -6.23565,-0.0539 -9.41797,0.008 -3.79081,0.0735 -7.51607,0.21572 -10.83008,0.41797 -3.31401,0.20225 -6.21663,0.4657 -8.35937,0.7832 -0.696,0.103 -2.7068,0.38877 -4.4668,0.63477 -5.633,0.79 -13.51344,2.06344 -16.39844,2.64844 -1.54,0.313 -4.59792,0.94525 -6.79492,1.40625 -1.078,0.22625 -2.072,0.39243 -2.98828,0.49804 -0.91628,0.10561 -1.75466,0.15008 -2.51953,0.13477 -0.76488,-0.0153 -1.4563,-0.0901 -2.08008,-0.22656 -0.62378,-0.13652 -1.18083,-0.3338 -1.67383,-0.5918 -0.14539,-0.0761 -0.24343,-0.19363 -0.38281,-0.27539 -0.33084,-0.1513 -0.6968,-0.26421 -0.99414,-0.45117 -0.61256,-0.38516 -1.1542,-0.8446 -1.6211,-1.37891 -0.46689,-0.53431 -0.85926,-1.14371 -1.17578,-1.82422 -0.27646,-0.5944 -0.46858,-1.26688 -0.62695,-1.9707 -0.0302,-0.1011 -0.0941,-0.19109 -0.12109,-0.29297 -0.22355,-0.84256 -0.34044,-1.71116 -0.34766,-2.57813 -0.006,-0.71947 0.10868,-1.43146 0.25195,-2.13476 0.002,-0.0158 0.002,-0.0351 0.004,-0.0508 0.001,-0.01 0.005,-0.0176 0.006,-0.0274 0.025,-0.11822 0.0137,-0.24213 0.043,-0.35937 0.0207,-0.0829 0.0709,-0.15594 0.0937,-0.23828 0.0786,-0.39813 0.14537,-0.80855 0.26758,-1.16797 0.18758,-0.55171 0.4281,-1.05928 0.72851,-1.5293 0.30041,-0.47002 0.66047,-0.90094 1.08594,-1.30078 0.42547,-0.39984 0.91576,-0.7682 1.47851,-1.10937 0.088,-0.0534 0.20727,-0.0963 0.29883,-0.14844 0.29886,-0.19891 0.5362,-0.44986 0.86719,-0.61914 0.5045,-0.258 1.32071,-0.5465 2.39453,-0.85742 1.07382,-0.31092 2.40485,-0.64506 3.9375,-0.99024 1.18335,-0.26651 2.91594,-0.55105 4.31445,-0.82812 1.39585,-0.27823 2.73113,-0.57818 4.17383,-0.83789 0.37947,-0.0683 0.78567,-0.12246 1.16797,-0.18946 0.56152,-0.098 0.9434,-0.19375 1.51953,-0.29101 1.20992,-0.20427 2.55723,-0.37183 3.81641,-0.57032 0.9695,-0.14999 1.90057,-0.32337 2.88086,-0.46484 0.5479,-0.0791 1.11145,-0.13653 1.66211,-0.21289 1.69401,-0.24548 3.31209,-0.52655 5.00781,-0.74805 4.52631,-0.59123 8.97721,-1.08264 12.9082,-1.40039 1.96325,-0.15875 4.71265,-0.28581 7.82031,-0.3789 0.15771,-0.005 0.34637,-0.005 0.50586,-0.01 0.33389,-0.0178 0.6855,-0.0499 1.01758,-0.0664 3.10242,-0.15402 6.12456,-0.25163 9.02149,-0.28906 z"
     style="fill:#1dda63;fill-rule:evenodd"
     id="path5" />
</svg>
